  0
SECTION
  2
HEADER
  9
$ACADVER
  1
AC1009
  9
$DWGCODEPAGE
  3
ansi_1252
  9
$INSBASE
 10
0.0
 20
0.0
 30
0.0
  9
$EXTMIN
 10
-102.245657253825
 20
-78.35629756128579
 30
0.0
  9
$EXTMAX
 10
-38.55189547919614
 20
64.27717859331743
 30
0.0
  9
$LIMMIN
 10
0.0
 20
0.0
  9
$LIMMAX
 10
12.0
 20
9.0
  9
$ORTHOMODE
 70
     0
  9
$REGENMODE
 70
     1
  9
$FILLMODE
 70
     1
  9
$QTEXTMODE
 70
     0
  9
$MIRRTEXT
 70
     1
  9
$DRAGMODE
 70
     2
  9
$LTSCALE
 40
1.0
  9
$OSMODE
 70
    37
  9
$ATTMODE
 70
     1
  9
$TEXTSIZE
 40
0.2
  9
$TRACEWID
 40
0.05
  9
$TEXTSTYLE
  7
STANDARD
  9
$CLAYER
  8
0
  9
$CELTYPE
  6
BYLAYER
  9
$CECOLOR
 62
   256
  9
$DIMSCALE
 40
1.0
  9
$DIMASZ
 40
0.18
  9
$DIMEXO
 40
0.0625
  9
$DIMDLI
 40
0.38
  9
$DIMRND
 40
0.0
  9
$DIMDLE
 40
0.0
  9
$DIMEXE
 40
0.18
  9
$DIMTP
 40
0.0
  9
$DIMTM
 40
0.0
  9
$DIMTXT
 40
0.18
  9
$DIMCEN
 40
0.09
  9
$DIMTSZ
 40
0.0
  9
$DIMTOL
 70
     0
  9
$DIMLIM
 70
     0
  9
$DIMTIH
 70
     1
  9
$DIMTOH
 70
     1
  9
$DIMSE1
 70
     0
  9
$DIMSE2
 70
     0
  9
$DIMTAD
 70
     0
  9
$DIMZIN
 70
     0
  9
$DIMBLK
  1

  9
$DIMASO
 70
     1
  9
$DIMSHO
 70
     1
  9
$DIMPOST
  1

  9
$DIMAPOST
  1

  9
$DIMALT
 70
     0
  9
$DIMALTD
 70
     2
  9
$DIMALTF
 40
25.4
  9
$DIMLFAC
 40
1.0
  9
$DIMTOFL
 70
     0
  9
$DIMTVP
 40
0.0
  9
$DIMTIX
 70
     0
  9
$DIMSOXD
 70
     0
  9
$DIMSAH
 70
     0
  9
$DIMBLK1
  1

  9
$DIMBLK2
  1

  9
$DIMSTYLE
  2
STANDARD
  9
$DIMCLRD
 70
     0
  9
$DIMCLRE
 70
     0
  9
$DIMCLRT
 70
     0
  9
$DIMTFAC
 40
1.0
  9
$DIMGAP
 40
0.09
  9
$LUNITS
 70
     2
  9
$LUPREC
 70
     4
  9
$SKETCHINC
 40
0.1
  9
$FILLETRAD
 40
0.5
  9
$AUNITS
 70
     0
  9
$AUPREC
 70
     0
  9
$MENU
  1
.
  9
$ELEVATION
 40
0.0
  9
$PELEVATION
 40
0.0
  9
$THICKNESS
 40
0.0
  9
$LIMCHECK
 70
     0
  9
$CHAMFERA
 40
0.0
  9
$CHAMFERB
 40
0.0
  9
$SKPOLY
 70
     0
  9
$TDCREATE
 40
2454910.5
  9
$TDUPDATE
 40
2459526.548166528
  9
$TDINDWG
 40
0.0000000116
  9
$TDUSRTIMER
 40
0.0000000116
  9
$USRTIMER
 70
     1
  9
$ANGBASE
 50
0.0
  9
$ANGDIR
 70
     0
  9
$PDMODE
 70
     0
  9
$PDSIZE
 40
0.0
  9
$PLINEWID
 40
0.0
  9
$COORDS
 70
     1
  9
$SPLFRAME
 70
     0
  9
$SPLINETYPE
 70
     6
  9
$SPLINESEGS
 70
     8
  9
$ATTDIA
 70
     0
  9
$ATTREQ
 70
     1
  9
$HANDLING
 70
     1
  9
$HANDSEED
  5
29F
  9
$SURFTAB1
 70
     6
  9
$SURFTAB2
 70
     6
  9
$SURFTYPE
 70
     6
  9
$SURFU
 70
     6
  9
$SURFV
 70
     6
  9
$UCSNAME
  2

  9
$UCSORG
 10
0.0
 20
0.0
 30
0.0
  9
$UCSXDIR
 10
1.0
 20
0.0
 30
0.0
  9
$UCSYDIR
 10
0.0
 20
1.0
 30
0.0
  9
$PUCSNAME
  2

  9
$PUCSORG
 10
0.0
 20
0.0
 30
0.0
  9
$PUCSXDIR
 10
1.0
 20
0.0
 30
0.0
  9
$PUCSYDIR
 10
0.0
 20
1.0
 30
0.0
  9
$USERI1
 70
     0
  9
$USERI2
 70
     0
  9
$USERI3
 70
     0
  9
$USERI4
 70
     0
  9
$USERI5
 70
     0
  9
$USERR1
 40
0.0
  9
$USERR2
 40
0.0
  9
$USERR3
 40
0.0
  9
$USERR4
 40
0.0
  9
$USERR5
 40
0.0
  9
$WORLDVIEW
 70
     1
  9
$SHADEDGE
 70
     3
  9
$SHADEDIF
 70
    70
  9
$TILEMODE
 70
     1
  9
$MAXACTVP
 70
    64
  9
$PLIMCHECK
 70
     0
  9
$PEXTMIN
 10
1.000000000000000E+20
 20
1.000000000000000E+20
 30
1.000000000000000E+20
  9
$PEXTMAX
 10
-1.000000000000000E+20
 20
-1.000000000000000E+20
 30
-1.000000000000000E+20
  9
$PLIMMIN
 10
0.0
 20
0.0
  9
$PLIMMAX
 10
12.0
 20
9.0
  9
$UNITMODE
 70
     0
  9
$VISRETAIN
 70
     1
  9
$PLINEGEN
 70
     0
  9
$PSLTSCALE
 70
     1
  0
ENDSEC
  0
SECTION
  2
TABLES
  0
TABLE
  2
VPORT
 70
     1
  0
VPORT
  2
*ACTIVE
 70
     0
 10
0.0
 20
0.0
 11
1.0
 21
1.0
 12
10.42990654205607
 22
4.5
 13
0.0
 23
0.0
 14
0.5
 24
0.5
 15
0.5
 25
0.5
 16
0.0
 26
0.0
 36
1.0
 17
0.0
 27
0.0
 37
0.0
 40
9.0
 41
1.972972972850329
 42
50.0
 43
0.0
 44
0.0
 50
0.0
 51
0.0
 71
     0
 72
   100
 73
     1
 74
     3
 75
     0
 76
     0
 77
     0
 78
     0
  0
ENDTAB
  0
TABLE
  2
LTYPE
 70
     2
  0
LTYPE
  2
CONTINUOUS
 70
     0
  3
Solid line
 72
    65
 73
     0
 40
0.0
  0
LTYPE
  2
CONTINUOUS2
 70
     0
  3
Solid Line
 72
    65
 73
     0
 40
0.0
  0
ENDTAB
  0
TABLE
  2
LAYER
 70
     2
  0
LAYER
  2
0
 70
     0
 62
     7
  6
CONTINUOUS
  0
LAYER
  2
CAPA_1
 70
     0
 62
    18
  6
CONTINUOUS
  0
ENDTAB
  0
TABLE
  2
STYLE
 70
     1
  0
STYLE
  2
STANDARD
 70
     0
 40
0.0
 41
1.0
 50
0.0
 71
     0
 42
0.2
  3
txt
  4

  0
ENDTAB
  0
TABLE
  2
VIEW
 70
     0
  0
ENDTAB
  0
TABLE
  2
UCS
 70
     0
  0
ENDTAB
  0
TABLE
  2
APPID
 70
     1
  0
APPID
  2
ACAD
 70
     0
  0
ENDTAB
  0
TABLE
  2
DIMSTYLE
 70
     1
  0
DIMSTYLE
  2
STANDARD
 70
     0
  3

  4

  5

  6

  7

 40
1.0
 41
0.18
 42
0.0625
 43
0.38
 44
0.18
 45
0.0
 46
0.0
 47
0.0
 48
0.0
140
0.18
141
0.09
142
0.0
143
25.4
144
1.0
145
0.0
146
1.0
147
0.09
 71
     0
 72
     0
 73
     1
 74
     1
 75
     0
 76
     0
 77
     0
 78
     0
170
     0
171
     2
172
     0
173
     0
174
     0
175
     0
176
     0
177
     0
178
     0
  0
ENDTAB
  0
ENDSEC
  0
SECTION
  2
BLOCKS
  0
BLOCK
  8
0
  2
$MODEL_SPACE
 70
     0
 10
0.0
 20
0.0
 30
0.0
  3
$MODEL_SPACE
  1

  0
ENDBLK
  5
21
  8
0
  0
BLOCK
 67
     1
  8
0
  2
$PAPER_SPACE
 70
     0
 10
0.0
 20
0.0
 30
0.0
  3
$PAPER_SPACE
  1

  0
ENDBLK
  5
1D
 67
     1
  8
0
  0
ENDSEC
  0
SECTION
  2
ENTITIES
  0
POLYLINE
  5
6C
  8
CAPA_1
 66
     1
 10
0.0
 20
0.0
 30
0.0
 70
     1
  0
VERTEX
  5
7B
  8
CAPA_1
 10
-95.83381016700334
 20
-59.03017429631252
 30
0.0
  0
VERTEX
  5
7C
  8
CAPA_1
 10
-88.40952219468896
 20
-59.03017429631252
 30
0.0
  0
VERTEX
  5
7D
  8
CAPA_1
 10
-88.12898881662382
 20
-59.04333965885083
 30
0.0
  0
VERTEX
  5
7E
  8
CAPA_1
 10
-87.85655913659308
 20
-59.08198123312222
 30
0.0
  0
VERTEX
  5
7F
  8
CAPA_1
 10
-87.59361231832254
 20
-59.14481724911135
 30
0.0
  0
VERTEX
  5
80
  8
CAPA_1
 10
-87.34152752553803
 20
-59.2305659368029
 30
0.0
  0
VERTEX
  5
81
  8
CAPA_1
 10
-87.10168392196532
 20
-59.33794552618154
 30
0.0
  0
VERTEX
  5
82
  8
CAPA_1
 10
-86.87546067133022
 20
-59.46567424723197
 30
0.0
  0
VERTEX
  5
83
  8
CAPA_1
 10
-86.66423693735854
 20
-59.61247032993884
 30
0.0
  0
VERTEX
  5
84
  8
CAPA_1
 10
-86.4693918837761
 20
-59.77705200428684
 30
0.0
  0
VERTEX
  5
85
  8
CAPA_1
 10
-86.29230467430868
 20
-59.95813750026065
 30
0.0
  0
VERTEX
  5
86
  8
CAPA_1
 10
-86.13435447268208
 20
-60.15444504784493
 30
0.0
  0
VERTEX
  5
87
  8
CAPA_1
 10
-85.99692044262213
 20
-60.36469287702437
 30
0.0
  0
VERTEX
  5
88
  8
CAPA_1
 10
-85.88138174785459
 20
-60.58759921778365
 30
0.0
  0
VERTEX
  5
89
  8
CAPA_1
 10
-85.7891175521053
 20
-60.82188230010742
 30
0.0
  0
VERTEX
  5
8A
  8
CAPA_1
 10
-85.72150701910004
 20
-61.06626035398038
 30
0.0
  0
VERTEX
  5
8B
  8
CAPA_1
 10
-85.67992931256464
 20
-61.3194516093872
 30
0.0
  0
VERTEX
  5
8C
  8
CAPA_1
 10
-85.66576359622488
 20
-61.58017429631256
 30
0.0
  0
VERTEX
  5
8D
  8
CAPA_1
 10
-85.67992931256464
 20
-61.84089698323793
 30
0.0
  0
VERTEX
  5
8E
  8
CAPA_1
 10
-85.72150701910004
 20
-62.09408823864474
 30
0.0
  0
VERTEX
  5
8F
  8
CAPA_1
 10
-85.7891175521053
 20
-62.33846629251771
 30
0.0
  0
VERTEX
  5
90
  8
CAPA_1
 10
-85.88138174785459
 20
-62.57274937484149
 30
0.0
  0
VERTEX
  5
91
  8
CAPA_1
 10
-85.99692044262213
 20
-62.79565571560076
 30
0.0
  0
VERTEX
  5
92
  8
CAPA_1
 10
-86.13435447268208
 20
-63.0059035447802
 30
0.0
  0
VERTEX
  5
93
  8
CAPA_1
 10
-86.29230467430868
 20
-63.20221109236448
 30
0.0
  0
VERTEX
  5
94
  8
CAPA_1
 10
-86.4693918837761
 20
-63.38329658833828
 30
0.0
  0
VERTEX
  5
95
  8
CAPA_1
 10
-86.66423693735854
 20
-63.54787826268628
 30
0.0
  0
VERTEX
  5
96
  8
CAPA_1
 10
-86.87546067133022
 20
-63.69467434539315
 30
0.0
  0
VERTEX
  5
97
  8
CAPA_1
 10
-87.10168392196532
 20
-63.82240306644358
 30
0.0
  0
VERTEX
  5
98
  8
CAPA_1
 10
-87.34152752553803
 20
-63.92978265582222
 30
0.0
  0
VERTEX
  5
99
  8
CAPA_1
 10
-87.59361231832254
 20
-64.01553134351377
 30
0.0
  0
VERTEX
  5
9A
  8
CAPA_1
 10
-87.85655913659308
 20
-64.07836735950289
 30
0.0
  0
VERTEX
  5
9B
  8
CAPA_1
 10
-88.12898881662382
 20
-64.11700893377429
 30
0.0
  0
VERTEX
  5
9C
  8
CAPA_1
 10
-88.40952219468896
 20
-64.13017429631259
 30
0.0
  0
VERTEX
  5
9D
  8
CAPA_1
 10
-95.83381016700334
 20
-64.13017429631259
 30
0.0
  0
VERTEX
  5
9E
  8
CAPA_1
 10
-96.11434354506848
 20
-64.11700893377429
 30
0.0
  0
VERTEX
  5
9F
  8
CAPA_1
 10
-96.38677322509922
 20
-64.07836735950289
 30
0.0
  0
VERTEX
  5
A0
  8
CAPA_1
 10
-96.64972004336975
 20
-64.01553134351377
 30
0.0
  0
VERTEX
  5
A1
  8
CAPA_1
 10
-96.90180483615427
 20
-63.92978265582222
 30
0.0
  0
VERTEX
  5
A2
  8
CAPA_1
 10
-97.14164843972698
 20
-63.82240306644357
 30
0.0
  0
VERTEX
  5
A3
  8
CAPA_1
 10
-97.36787169036207
 20
-63.69467434539315
 30
0.0
  0
VERTEX
  5
A4
  8
CAPA_1
 10
-97.57909542433373
 20
-63.54787826268627
 30
0.0
  0
VERTEX
  5
A5
  8
CAPA_1
 10
-97.77394047791618
 20
-63.38329658833827
 30
0.0
  0
VERTEX
  5
A6
  8
CAPA_1
 10
-97.95102768738361
 20
-63.20221109236446
 30
0.0
  0
VERTEX
  5
A7
  8
CAPA_1
 10
-98.1089778890102
 20
-63.00590354478018
 30
0.0
  0
VERTEX
  5
A8
  8
CAPA_1
 10
-98.24641191907017
 20
-62.79565571560074
 30
0.0
  0
VERTEX
  5
A9
  8
CAPA_1
 10
-98.36195061383769
 20
-62.57274937484147
 30
0.0
  0
VERTEX
  5
AA
  8
CAPA_1
 10
-98.45421480958697
 20
-62.33846629251769
 30
0.0
  0
VERTEX
  5
AB
  8
CAPA_1
 10
-98.52182534259222
 20
-62.09408823864474
 30
0.0
  0
VERTEX
  5
AC
  8
CAPA_1
 10
-98.56340304912763
 20
-61.84089698323791
 30
0.0
  0
VERTEX
  5
AD
  8
CAPA_1
 10
-98.57756876546739
 20
-61.58017429631256
 30
0.0
  0
VERTEX
  5
AE
  8
CAPA_1
 10
-98.56340304912763
 20
-61.3194516093872
 30
0.0
  0
VERTEX
  5
AF
  8
CAPA_1
 10
-98.52182534259222
 20
-61.06626035398038
 30
0.0
  0
VERTEX
  5
B0
  8
CAPA_1
 10
-98.45421480958697
 20
-60.82188230010742
 30
0.0
  0
VERTEX
  5
B1
  8
CAPA_1
 10
-98.36195061383769
 20
-60.58759921778365
 30
0.0
  0
VERTEX
  5
B2
  8
CAPA_1
 10
-98.24641191907017
 20
-60.36469287702437
 30
0.0
  0
VERTEX
  5
B3
  8
CAPA_1
 10
-98.1089778890102
 20
-60.15444504784493
 30
0.0
  0
VERTEX
  5
B4
  8
CAPA_1
 10
-97.95102768738361
 20
-59.95813750026065
 30
0.0
  0
VERTEX
  5
B5
  8
CAPA_1
 10
-97.77394047791618
 20
-59.77705200428684
 30
0.0
  0
VERTEX
  5
B6
  8
CAPA_1
 10
-97.57909542433373
 20
-59.61247032993884
 30
0.0
  0
VERTEX
  5
B7
  8
CAPA_1
 10
-97.36787169036207
 20
-59.46567424723197
 30
0.0
  0
VERTEX
  5
B8
  8
CAPA_1
 10
-97.14164843972698
 20
-59.33794552618154
 30
0.0
  0
VERTEX
  5
B9
  8
CAPA_1
 10
-96.90180483615427
 20
-59.2305659368029
 30
0.0
  0
VERTEX
  5
BA
  8
CAPA_1
 10
-96.64972004336975
 20
-59.14481724911135
 30
0.0
  0
VERTEX
  5
BB
  8
CAPA_1
 10
-96.38677322509922
 20
-59.08198123312222
 30
0.0
  0
VERTEX
  5
BC
  8
CAPA_1
 10
-96.11434354506848
 20
-59.04333965885083
 30
0.0
  0
SEQEND
  5
297
  8
CAPA_1
  0
POLYLINE
  5
6D
  8
CAPA_1
 66
     1
 10
0.0
 20
0.0
 30
0.0
 70
     1
  0
VERTEX
  5
BD
  8
CAPA_1
 10
-69.16362318831449
 20
-65.8445703423171
 30
0.0
  0
VERTEX
  5
BE
  8
CAPA_1
 10
-69.33117893763445
 20
-65.78553027288535
 30
0.0
  0
VERTEX
  5
BF
  8
CAPA_1
 10
-69.49341545681725
 20
-65.7194214123102
 30
0.0
  0
VERTEX
  5
C0
  8
CAPA_1
 10
-69.65033274586293
 20
-65.64647178611237
 30
0.0
  0
VERTEX
  5
C1
  8
CAPA_1
 10
-69.80193080477144
 20
-65.56690941981265
 30
0.0
  0
VERTEX
  5
C2
  8
CAPA_1
 10
-69.94820963354283
 20
-65.48096233893176
 30
0.0
  0
VERTEX
  5
C3
  8
CAPA_1
 10
-70.08916923217706
 20
-65.38885856899047
 30
0.0
  0
VERTEX
  5
C4
  8
CAPA_1
 10
-70.22480960067418
 20
-65.29082613550955
 30
0.0
  0
VERTEX
  5
C5
  8
CAPA_1
 10
-70.35513073903414
 20
-65.18709306400972
 30
0.0
  0
VERTEX
  5
C6
  8
CAPA_1
 10
-70.59981532534263
 20
-64.96343710903645
 30
0.0
  0
VERTEX
  5
C7
  8
CAPA_1
 10
-70.82322299110257
 20
-64.7197149082367
 30
0.0
  0
VERTEX
  5
C8
  8
CAPA_1
 10
-71.02535373631392
 20
-64.4577506657765
 30
0.0
  0
VERTEX
  5
C9
  8
CAPA_1
 10
-71.20620756097674
 20
-64.17936858582193
 30
0.0
  0
VERTEX
  5
CA
  8
CAPA_1
 10
-71.36578446509097
 20
-63.88639287253901
 30
0.0
  0
VERTEX
  5
CB
  8
CAPA_1
 10
-71.50408444865666
 20
-63.58064773009377
 30
0.0
  0
VERTEX
  5
CC
  8
CAPA_1
 10
-71.62110751167376
 20
-63.26395736265226
 30
0.0
  0
VERTEX
  5
CD
  8
CAPA_1
 10
-71.71685365414231
 20
-62.93814597438054
 30
0.0
  0
VERTEX
  5
CE
  8
CAPA_1
 10
-71.79132287606228
 20
-62.60503776944464
 30
0.0
  0
VERTEX
  5
CF
  8
CAPA_1
 10
-71.8445151774337
 20
-62.26645695201061
 30
0.0
  0
VERTEX
  5
D0
  8
CAPA_1
 10
-71.87643055825654
 20
-61.9242277262445
 30
0.0
  0
VERTEX
  5
D1
  8
CAPA_1
 10
-71.88706901853084
 20
-61.58017429631235
 30
0.0
  0
VERTEX
  5
D2
  8
CAPA_1
 10
-71.87643055825654
 20
-61.2361208663802
 30
0.0
  0
VERTEX
  5
D3
  8
CAPA_1
 10
-71.8445151774337
 20
-60.89389164061409
 30
0.0
  0
VERTEX
  5
D4
  8
CAPA_1
 10
-71.79132287606228
 20
-60.55531082318006
 30
0.0
  0
VERTEX
  5
D5
  8
CAPA_1
 10
-71.71685365414231
 20
-60.22220261824416
 30
0.0
  0
VERTEX
  5
D6
  8
CAPA_1
 10
-71.62110751167376
 20
-59.89639122997244
 30
0.0
  0
VERTEX
  5
D7
  8
CAPA_1
 10
-71.50408444865666
 20
-59.57970086253093
 30
0.0
  0
VERTEX
  5
D8
  8
CAPA_1
 10
-71.36578446509097
 20
-59.2739557200857
 30
0.0
  0
VERTEX
  5
D9
  8
CAPA_1
 10
-71.20620756097674
 20
-58.98098000680277
 30
0.0
  0
VERTEX
  5
DA
  8
CAPA_1
 10
-71.02535373631392
 20
-58.70259792684818
 30
0.0
  0
VERTEX
  5
DB
  8
CAPA_1
 10
-70.82322299110257
 20
-58.440633684388
 30
0.0
  0
VERTEX
  5
DC
  8
CAPA_1
 10
-70.59981532534263
 20
-58.19691148358825
 30
0.0
  0
VERTEX
  5
DD
  8
CAPA_1
 10
-70.48013264725697
 20
-58.08246121261293
 30
0.0
  0
VERTEX
  5
DE
  8
CAPA_1
 10
-70.35513073903414
 20
-57.97325552861498
 30
0.0
  0
VERTEX
  5
DF
  8
CAPA_1
 10
-70.22480960067418
 20
-57.86952245711517
 30
0.0
  0
VERTEX
  5
E0
  8
CAPA_1
 10
-70.08916923217706
 20
-57.77149002363424
 30
0.0
  0
VERTEX
  5
E1
  8
CAPA_1
 10
-69.94820963354283
 20
-57.67938625369295
 30
0.0
  0
VERTEX
  5
E2
  8
CAPA_1
 10
-69.80193080477144
 20
-57.59343917281207
 30
0.0
  0
VERTEX
  5
E3
  8
CAPA_1
 10
-69.65033274586293
 20
-57.51387680651234
 30
0.0
  0
VERTEX
  5
E4
  8
CAPA_1
 10
-69.49341545681725
 20
-57.4409271803145
 30
0.0
  0
VERTEX
  5
E5
  8
CAPA_1
 10
-69.33117893763445
 20
-57.37481831973934
 30
0.0
  0
VERTEX
  5
E6
  8
CAPA_1
 10
-69.16362318831449
 20
-57.3157782503076
 30
0.0
 42
0.1152293571814461
  0
VERTEX
  5
E7
  8
CAPA_1
 10
-48.49339777107652
 20
-50.98729336697296
 30
0.0
  0
VERTEX
  5
E8
  8
CAPA_1
 10
-48.13357658183479
 20
-50.25109395290121
 30
0.0
  0
VERTEX
  5
E9
  8
CAPA_1
 10
-47.75058273847534
 20
-49.52867665565927
 30
0.0
  0
VERTEX
  5
EA
  8
CAPA_1
 10
-47.34489982545689
 20
-48.82052680379819
 30
0.0
  0
VERTEX
  5
EB
  8
CAPA_1
 10
-46.91701142723819
 20
-48.1271297258691
 30
0.0
  0
VERTEX
  5
EC
  8
CAPA_1
 10
-46.46740112827798
 20
-47.44897075042309
 30
0.0
  0
VERTEX
  5
ED
  8
CAPA_1
 10
-45.996552513035
 20
-46.78653520601128
 30
0.0
  0
VERTEX
  5
EE
  8
CAPA_1
 10
-45.50494916596797
 20
-46.14030842118478
 30
0.0
  0
VERTEX
  5
EF
  8
CAPA_1
 10
-44.99307467153566
 20
-45.51077572449469
 30
0.0
  0
VERTEX
  5
F0
  8
CAPA_1
 10
-44.97994589733199
 20
-45.52179276125423
 30
0.0
 42
-0.7684034981527388
  0
VERTEX
  5
F1
  8
CAPA_1
 10
-38.93658411135388
 20
-50.59293368548266
 30
0.0
  0
VERTEX
  5
F2
  8
CAPA_1
 10
-39.17321343635822
 20
-50.88029511408291
 30
0.0
  0
VERTEX
  5
F3
  8
CAPA_1
 10
-39.4032653307266
 20
-51.1724653234694
 30
0.0
  0
VERTEX
  5
F4
  8
CAPA_1
 10
-39.62667850314752
 20
-51.46932466034085
 30
0.0
  0
VERTEX
  5
F5
  8
CAPA_1
 10
-39.84339166230941
 20
-51.77075347139596
 30
0.0
  0
VERTEX
  5
F6
  8
CAPA_1
 10
-40.05334351690078
 20
-52.07663210333347
 30
0.0
  0
VERTEX
  5
F7
  8
CAPA_1
 10
-40.25647277561007
 20
-52.3868409028521
 30
0.0
  0
VERTEX
  5
F8
  8
CAPA_1
 10
-40.45271814712576
 20
-52.70126021665055
 30
0.0
  0
VERTEX
  5
F9
  8
CAPA_1
 10
-40.64201834013633
 20
-53.01977039142756
 30
0.0
  0
VERTEX
  5
FA
  8
CAPA_1
 10
-40.82431206333024
 20
-53.34225177388183
 30
0.0
  0
VERTEX
  5
FB
  8
CAPA_1
 10
-40.99953802539594
 20
-53.66858471071211
 30
0.0
  0
VERTEX
  5
FC
  8
CAPA_1
 10
-41.16763493502192
 20
-53.99864954861709
 30
0.0
  0
VERTEX
  5
FD
  8
CAPA_1
 10
-41.32854150089665
 20
-54.3323266342955
 30
0.0
  0
VERTEX
  5
FE
  8
CAPA_1
 10
-41.48219643170859
 20
-54.66949631444606
 30
0.0
  0
VERTEX
  5
FF
  8
CAPA_1
 10
-41.62853843614621
 20
-55.01003893576749
 30
0.0
  0
VERTEX
  5
100
  8
CAPA_1
 10
-41.76750622289799
 20
-55.35383484495851
 30
0.0
  0
VERTEX
  5
101
  8
CAPA_1
 10
-41.89903850065238
 20
-55.70076438871784
 30
0.0
  0
VERTEX
  5
102
  8
CAPA_1
 10
-42.02307397809786
 20
-56.0507079137442
 30
0.0
  0
VERTEX
  5
103
  8
CAPA_1
 10
-42.13955136392291
 20
-56.40354576673631
 30
0.0
  0
VERTEX
  5
104
  8
CAPA_1
 10
-42.24840936681598
 20
-56.75915829439289
 30
0.0
  0
VERTEX
  5
105
  8
CAPA_1
 10
-42.34958669546555
 20
-57.11742584341265
 30
0.0
  0
VERTEX
  5
106
  8
CAPA_1
 10
-42.44302205856008
 20
-57.47822876049432
 30
0.0
  0
VERTEX
  5
107
  8
CAPA_1
 10
-42.52865416478805
 20
-57.8414473923366
 30
0.0
  0
VERTEX
  5
108
  8
CAPA_1
 10
-42.60642172283792
 20
-58.20696208563825
 30
0.0
  0
VERTEX
  5
109
  8
CAPA_1
 10
-42.67626344139818
 20
-58.57465318709796
 30
0.0
  0
VERTEX
  5
10A
  8
CAPA_1
 10
-42.73811802915726
 20
-58.94440104341446
 30
0.0
  0
VERTEX
  5
10B
  8
CAPA_1
 10
-42.79192419480367
 20
-59.31608600128645
 30
0.0
  0
VERTEX
  5
10C
  8
CAPA_1
 10
-42.83762064702586
 20
-59.68958840741266
 30
0.0
  0
VERTEX
  5
10D
  8
CAPA_1
 10
-42.87514609451229
 20
-60.06478860849183
 30
0.0
  0
VERTEX
  5
10E
  8
CAPA_1
 10
-42.90443924595143
 20
-60.44156695122266
 30
0.0
  0
VERTEX
  5
10F
  8
CAPA_1
 10
-42.92543881003177
 20
-60.81980378230388
 30
0.0
  0
VERTEX
  5
110
  8
CAPA_1
 10
-42.93808349544176
 20
-61.1993794484342
 30
0.0
  0
VERTEX
  5
111
  8
CAPA_1
 10
-42.94231201086988
 20
-61.58017429631234
 30
0.0
  0
VERTEX
  5
112
  8
CAPA_1
 10
-42.93809694252866
 20
-61.96027371921126
 30
0.0
  0
VERTEX
  5
113
  8
CAPA_1
 10
-42.92549141747244
 20
-62.33921515981272
 30
0.0
  0
VERTEX
  5
114
  8
CAPA_1
 10
-42.90455495565239
 20
-62.71687844699252
 30
0.0
  0
VERTEX
  5
115
  8
CAPA_1
 10
-42.87534707701972
 20
-63.09314340962644
 30
0.0
  0
VERTEX
  5
116
  8
CAPA_1
 10
-42.8379273015256
 20
-63.46788987659025
 30
0.0
  0
VERTEX
  5
117
  8
CAPA_1
 10
-42.7923551491212
 20
-63.84099767675973
 30
0.0
  0
VERTEX
  5
118
  8
CAPA_1
 10
-42.73869013975771
 20
-64.21234663901069
 30
0.0
  0
VERTEX
  5
119
  8
CAPA_1
 10
-42.67699179338631
 20
-64.58181659221887
 30
0.0
  0
VERTEX
  5
11A
  8
CAPA_1
 10
-42.6073196299582
 20
-64.94928736526008
 30
0.0
  0
VERTEX
  5
11B
  8
CAPA_1
 10
-42.52973316942453
 20
-65.31463878701011
 30
0.0
  0
VERTEX
  5
11C
  8
CAPA_1
 10
-42.4442919317365
 20
-65.67775068634472
 30
0.0
  0
VERTEX
  5
11D
  8
CAPA_1
 10
-42.35105543684529
 20
-66.0385028921397
 30
0.0
  0
VERTEX
  5
11E
  8
CAPA_1
 10
-42.25008320470207
 20
-66.39677523327083
 30
0.0
  0
VERTEX
  5
11F
  8
CAPA_1
 10
-42.14143475525803
 20
-66.75244753861391
 30
0.0
  0
VERTEX
  5
120
  8
CAPA_1
 10
-42.02516960846437
 20
-67.1053996370447
 30
0.0
  0
VERTEX
  5
121
  8
CAPA_1
 10
-41.90134728427224
 20
-67.45551135743898
 30
0.0
  0
VERTEX
  5
122
  8
CAPA_1
 10
-41.77002730263284
 20
-67.80266252867256
 30
0.0
  0
VERTEX
  5
123
  8
CAPA_1
 10
-41.63126918349734
 20
-68.14673297962119
 30
0.0
  0
VERTEX
  5
124
  8
CAPA_1
 10
-41.48513244681693
 20
-68.48760253916066
 30
0.0
  0
VERTEX
  5
125
  8
CAPA_1
 10
-41.33167661254279
 20
-68.82515103616676
 30
0.0
  0
VERTEX
  5
126
  8
CAPA_1
 10
-41.1709612006261
 20
-69.15925829951527
 30
0.0
  0
VERTEX
  5
127
  8
CAPA_1
 10
-41.00304573101805
 20
-69.48980415808198
 30
0.0
  0
VERTEX
  5
128
  8
CAPA_1
 10
-40.8279897236698
 20
-69.81666844074266
 30
0.0
  0
VERTEX
  5
129
  8
CAPA_1
 10
-40.64585269853255
 20
-70.1397309763731
 30
0.0
  0
VERTEX
  5
12A
  8
CAPA_1
 10
-40.45669417555747
 20
-70.45887159384907
 30
0.0
  0
VERTEX
  5
12B
  8
CAPA_1
 10
-40.26057367469576
 20
-70.77397012204638
 30
0.0
  0
VERTEX
  5
12C
  8
CAPA_1
 10
-40.05755071589859
 20
-71.08490638984078
 30
0.0
  0
VERTEX
  5
12D
  8
CAPA_1
 10
-39.84768481911713
 20
-71.39156022610806
 30
0.0
  0
VERTEX
  5
12E
  8
CAPA_1
 10
-39.63103550430257
 20
-71.693811459724
 30
0.0
  0
VERTEX
  5
12F
  8
CAPA_1
 10
-39.4076622914061
 20
-71.99153991956439
 30
0.0
  0
VERTEX
  5
130
  8
CAPA_1
 10
-39.17762470037889
 20
-72.28462543450502
 30
0.0
  0
VERTEX
  5
131
  8
CAPA_1
 10
-38.94098225117213
 20
-72.57294783342165
 30
0.0
  0
VERTEX
  5
132
  8
CAPA_1
 10
-38.94098225117324
 20
-72.5729478334226
 30
0.0
 42
-0.7548582658086244
  0
VERTEX
  5
133
  8
CAPA_1
 10
-44.99207876612977
 20
-77.65073732987268
 30
0.0
  0
VERTEX
  5
134
  8
CAPA_1
 10
-45.50411132291909
 20
-77.02108757980497
 30
0.0
  0
VERTEX
  5
135
  8
CAPA_1
 10
-45.99586374913574
 20
-76.37473487133897
 30
0.0
  0
VERTEX
  5
136
  8
CAPA_1
 10
-46.46685214174853
 20
-75.71216489203393
 30
0.0
  0
VERTEX
  5
137
  8
CAPA_1
 10
-46.91659259772632
 20
-75.03386332944908
 30
0.0
  0
VERTEX
  5
138
  8
CAPA_1
 10
-47.34460121403794
 20
-74.34031587114364
 30
0.0
  0
VERTEX
  5
139
  8
CAPA_1
 10
-47.75039408765221
 20
-73.6320082046769
 30
0.0
  0
VERTEX
  5
13A
  8
CAPA_1
 10
-48.13348731553798
 20
-72.90942601760806
 30
0.0
  0
VERTEX
  5
13B
  8
CAPA_1
 10
-48.49339699466408
 20
-72.17305499749635
 30
0.0
 42
0.1152293571814461
  0
SEQEND
  5
298
  8
CAPA_1
  0
POLYLINE
  5
6E
  8
CAPA_1
 66
     1
 10
0.0
 20
0.0
 30
0.0
 70
     1
  0
VERTEX
  5
13C
  8
CAPA_1
 10
-65.47522193170927
 20
-59.03017429631252
 30
0.0
  0
VERTEX
  5
13D
  8
CAPA_1
 10
-58.0509339593949
 20
-59.03017429631252
 30
0.0
  0
VERTEX
  5
13E
  8
CAPA_1
 10
-57.77040058132977
 20
-59.04333965885083
 30
0.0
  0
VERTEX
  5
13F
  8
CAPA_1
 10
-57.49797090129904
 20
-59.08198123312222
 30
0.0
  0
VERTEX
  5
140
  8
CAPA_1
 10
-57.23502408302852
 20
-59.14481724911135
 30
0.0
  0
VERTEX
  5
141
  8
CAPA_1
 10
-56.98293929024401
 20
-59.2305659368029
 30
0.0
  0
VERTEX
  5
142
  8
CAPA_1
 10
-56.74309568667131
 20
-59.33794552618154
 30
0.0
  0
VERTEX
  5
143
  8
CAPA_1
 10
-56.51687243603622
 20
-59.46567424723197
 30
0.0
  0
VERTEX
  5
144
  8
CAPA_1
 10
-56.30564870206454
 20
-59.61247032993884
 30
0.0
  0
VERTEX
  5
145
  8
CAPA_1
 10
-56.1108036484821
 20
-59.77705200428684
 30
0.0
  0
VERTEX
  5
146
  8
CAPA_1
 10
-55.93371643901469
 20
-59.95813750026065
 30
0.0
  0
VERTEX
  5
147
  8
CAPA_1
 10
-55.77576623738808
 20
-60.15444504784493
 30
0.0
  0
VERTEX
  5
148
  8
CAPA_1
 10
-55.63833220732812
 20
-60.36469287702437
 30
0.0
  0
VERTEX
  5
149
  8
CAPA_1
 10
-55.5227935125606
 20
-60.58759921778365
 30
0.0
  0
VERTEX
  5
14A
  8
CAPA_1
 10
-55.43052931681131
 20
-60.82188230010742
 30
0.0
  0
VERTEX
  5
14B
  8
CAPA_1
 10
-55.36291878380606
 20
-61.06626035398038
 30
0.0
  0
VERTEX
  5
14C
  8
CAPA_1
 10
-55.32134107727065
 20
-61.3194516093872
 30
0.0
  0
VERTEX
  5
14D
  8
CAPA_1
 10
-55.30717536093089
 20
-61.58017429631256
 30
0.0
  0
VERTEX
  5
14E
  8
CAPA_1
 10
-55.32134107727065
 20
-61.84089698323793
 30
0.0
  0
VERTEX
  5
14F
  8
CAPA_1
 10
-55.36291878380606
 20
-62.09408823864474
 30
0.0
  0
VERTEX
  5
150
  8
CAPA_1
 10
-55.43052931681131
 20
-62.33846629251771
 30
0.0
  0
VERTEX
  5
151
  8
CAPA_1
 10
-55.5227935125606
 20
-62.57274937484149
 30
0.0
  0
VERTEX
  5
152
  8
CAPA_1
 10
-55.63833220732812
 20
-62.79565571560076
 30
0.0
  0
VERTEX
  5
153
  8
CAPA_1
 10
-55.77576623738808
 20
-63.0059035447802
 30
0.0
  0
VERTEX
  5
154
  8
CAPA_1
 10
-55.93371643901469
 20
-63.20221109236448
 30
0.0
  0
VERTEX
  5
155
  8
CAPA_1
 10
-56.1108036484821
 20
-63.38329658833828
 30
0.0
  0
VERTEX
  5
156
  8
CAPA_1
 10
-56.30564870206454
 20
-63.54787826268628
 30
0.0
  0
VERTEX
  5
157
  8
CAPA_1
 10
-56.51687243603622
 20
-63.69467434539315
 30
0.0
  0
VERTEX
  5
158
  8
CAPA_1
 10
-56.74309568667131
 20
-63.82240306644358
 30
0.0
  0
VERTEX
  5
159
  8
CAPA_1
 10
-56.98293929024401
 20
-63.92978265582222
 30
0.0
  0
VERTEX
  5
15A
  8
CAPA_1
 10
-57.23502408302852
 20
-64.01553134351377
 30
0.0
  0
VERTEX
  5
15B
  8
CAPA_1
 10
-57.49797090129904
 20
-64.07836735950289
 30
0.0
  0
VERTEX
  5
15C
  8
CAPA_1
 10
-57.77040058132977
 20
-64.11700893377429
 30
0.0
  0
VERTEX
  5
15D
  8
CAPA_1
 10
-58.0509339593949
 20
-64.13017429631259
 30
0.0
  0
VERTEX
  5
15E
  8
CAPA_1
 10
-65.47522193170927
 20
-64.13017429631259
 30
0.0
  0
VERTEX
  5
15F
  8
CAPA_1
 10
-65.75575530977441
 20
-64.11700893377429
 30
0.0
  0
VERTEX
  5
160
  8
CAPA_1
 10
-66.02818498980514
 20
-64.07836735950289
 30
0.0
  0
VERTEX
  5
161
  8
CAPA_1
 10
-66.29113180807566
 20
-64.01553134351377
 30
0.0
  0
VERTEX
  5
162
  8
CAPA_1
 10
-66.54321660086018
 20
-63.92978265582222
 30
0.0
  0
VERTEX
  5
163
  8
CAPA_1
 10
-66.78306020443287
 20
-63.82240306644357
 30
0.0
  0
VERTEX
  5
164
  8
CAPA_1
 10
-67.00928345506796
 20
-63.69467434539315
 30
0.0
  0
VERTEX
  5
165
  8
CAPA_1
 10
-67.22050718903964
 20
-63.54787826268627
 30
0.0
  0
VERTEX
  5
166
  8
CAPA_1
 10
-67.41535224262208
 20
-63.38329658833827
 30
0.0
  0
VERTEX
  5
167
  8
CAPA_1
 10
-67.5924394520895
 20
-63.20221109236446
 30
0.0
  0
VERTEX
  5
168
  8
CAPA_1
 10
-67.75038965371608
 20
-63.00590354478018
 30
0.0
  0
VERTEX
  5
169
  8
CAPA_1
 10
-67.88782368377605
 20
-62.79565571560074
 30
0.0
  0
VERTEX
  5
16A
  8
CAPA_1
 10
-68.00336237854356
 20
-62.57274937484147
 30
0.0
  0
VERTEX
  5
16B
  8
CAPA_1
 10
-68.09562657429285
 20
-62.33846629251769
 30
0.0
  0
VERTEX
  5
16C
  8
CAPA_1
 10
-68.16323710729809
 20
-62.09408823864474
 30
0.0
  0
VERTEX
  5
16D
  8
CAPA_1
 10
-68.2048148138335
 20
-61.84089698323791
 30
0.0
  0
VERTEX
  5
16E
  8
CAPA_1
 10
-68.21898053017324
 20
-61.58017429631256
 30
0.0
  0
VERTEX
  5
16F
  8
CAPA_1
 10
-68.2048148138335
 20
-61.3194516093872
 30
0.0
  0
VERTEX
  5
170
  8
CAPA_1
 10
-68.16323710729809
 20
-61.06626035398038
 30
0.0
  0
VERTEX
  5
171
  8
CAPA_1
 10
-68.09562657429285
 20
-60.82188230010742
 30
0.0
  0
VERTEX
  5
172
  8
CAPA_1
 10
-68.00336237854356
 20
-60.58759921778365
 30
0.0
  0
VERTEX
  5
173
  8
CAPA_1
 10
-67.88782368377605
 20
-60.36469287702437
 30
0.0
  0
VERTEX
  5
174
  8
CAPA_1
 10
-67.75038965371608
 20
-60.15444504784493
 30
0.0
  0
VERTEX
  5
175
  8
CAPA_1
 10
-67.5924394520895
 20
-59.95813750026065
 30
0.0
  0
VERTEX
  5
176
  8
CAPA_1
 10
-67.41535224262208
 20
-59.77705200428684
 30
0.0
  0
VERTEX
  5
177
  8
CAPA_1
 10
-67.22050718903964
 20
-59.61247032993884
 30
0.0
  0
VERTEX
  5
178
  8
CAPA_1
 10
-67.00928345506796
 20
-59.46567424723197
 30
0.0
  0
VERTEX
  5
179
  8
CAPA_1
 10
-66.78306020443287
 20
-59.33794552618154
 30
0.0
  0
VERTEX
  5
17A
  8
CAPA_1
 10
-66.54321660086018
 20
-59.2305659368029
 30
0.0
  0
VERTEX
  5
17B
  8
CAPA_1
 10
-66.29113180807566
 20
-59.14481724911135
 30
0.0
  0
VERTEX
  5
17C
  8
CAPA_1
 10
-66.02818498980514
 20
-59.08198123312222
 30
0.0
  0
VERTEX
  5
17D
  8
CAPA_1
 10
-65.75575530977441
 20
-59.04333965885083
 30
0.0
  0
SEQEND
  5
299
  8
CAPA_1
  0
POLYLINE
  5
6F
  8
CAPA_1
 66
     1
 10
0.0
 20
0.0
 30
0.0
 70
     1
  0
VERTEX
  5
17E
  8
CAPA_1
 10
-99.52221142360867
 20
-65.8445703423171
 30
0.0
  0
VERTEX
  5
17F
  8
CAPA_1
 10
-99.68976717292863
 20
-65.78553027288535
 30
0.0
  0
VERTEX
  5
180
  8
CAPA_1
 10
-99.85200369211142
 20
-65.7194214123102
 30
0.0
  0
VERTEX
  5
181
  8
CAPA_1
 10
-100.0089209811571
 20
-65.64647178611237
 30
0.0
  0
VERTEX
  5
182
  8
CAPA_1
 10
-100.1605190400656
 20
-65.56690941981265
 30
0.0
  0
VERTEX
  5
183
  8
CAPA_1
 10
-100.306797868837
 20
-65.48096233893176
 30
0.0
  0
VERTEX
  5
184
  8
CAPA_1
 10
-100.4477574674712
 20
-65.38885856899047
 30
0.0
  0
VERTEX
  5
185
  8
CAPA_1
 10
-100.5833978359684
 20
-65.29082613550955
 30
0.0
  0
VERTEX
  5
186
  8
CAPA_1
 10
-100.7137189743283
 20
-65.18709306400972
 30
0.0
  0
VERTEX
  5
187
  8
CAPA_1
 10
-100.9584035606368
 20
-64.96343710903645
 30
0.0
  0
VERTEX
  5
188
  8
CAPA_1
 10
-101.1818112263967
 20
-64.7197149082367
 30
0.0
  0
VERTEX
  5
189
  8
CAPA_1
 10
-101.3839419716081
 20
-64.4577506657765
 30
0.0
  0
VERTEX
  5
18A
  8
CAPA_1
 10
-101.5647957962709
 20
-64.17936858582193
 30
0.0
  0
VERTEX
  5
18B
  8
CAPA_1
 10
-101.7243727003851
 20
-63.88639287253901
 30
0.0
  0
VERTEX
  5
18C
  8
CAPA_1
 10
-101.8626726839508
 20
-63.58064773009377
 30
0.0
  0
VERTEX
  5
18D
  8
CAPA_1
 10
-101.9796957469679
 20
-63.26395736265226
 30
0.0
  0
VERTEX
  5
18E
  8
CAPA_1
 10
-102.0754418894365
 20
-62.93814597438054
 30
0.0
  0
VERTEX
  5
18F
  8
CAPA_1
 10
-102.1499111113565
 20
-62.60503776944464
 30
0.0
  0
VERTEX
  5
190
  8
CAPA_1
 10
-102.2031034127279
 20
-62.26645695201061
 30
0.0
  0
VERTEX
  5
191
  8
CAPA_1
 10
-102.2350187935507
 20
-61.9242277262445
 30
0.0
  0
VERTEX
  5
192
  8
CAPA_1
 10
-102.245657253825
 20
-61.58017429631235
 30
0.0
  0
VERTEX
  5
193
  8
CAPA_1
 10
-102.2350187935507
 20
-61.2361208663802
 30
0.0
  0
VERTEX
  5
194
  8
CAPA_1
 10
-102.2031034127279
 20
-60.89389164061409
 30
0.0
  0
VERTEX
  5
195
  8
CAPA_1
 10
-102.1499111113565
 20
-60.55531082318006
 30
0.0
  0
VERTEX
  5
196
  8
CAPA_1
 10
-102.0754418894365
 20
-60.22220261824416
 30
0.0
  0
VERTEX
  5
197
  8
CAPA_1
 10
-101.9796957469679
 20
-59.89639122997244
 30
0.0
  0
VERTEX
  5
198
  8
CAPA_1
 10
-101.8626726839508
 20
-59.57970086253093
 30
0.0
  0
VERTEX
  5
199
  8
CAPA_1
 10
-101.7243727003851
 20
-59.2739557200857
 30
0.0
  0
VERTEX
  5
19A
  8
CAPA_1
 10
-101.5647957962709
 20
-58.98098000680277
 30
0.0
  0
VERTEX
  5
19B
  8
CAPA_1
 10
-101.3839419716081
 20
-58.70259792684818
 30
0.0
  0
VERTEX
  5
19C
  8
CAPA_1
 10
-101.1818112263967
 20
-58.440633684388
 30
0.0
  0
VERTEX
  5
19D
  8
CAPA_1
 10
-100.9584035606368
 20
-58.19691148358825
 30
0.0
  0
VERTEX
  5
19E
  8
CAPA_1
 10
-100.8387208825511
 20
-58.08246121261293
 30
0.0
  0
VERTEX
  5
19F
  8
CAPA_1
 10
-100.7137189743283
 20
-57.97325552861498
 30
0.0
  0
VERTEX
  5
1A0
  8
CAPA_1
 10
-100.5833978359684
 20
-57.86952245711517
 30
0.0
  0
VERTEX
  5
1A1
  8
CAPA_1
 10
-100.4477574674712
 20
-57.77149002363424
 30
0.0
  0
VERTEX
  5
1A2
  8
CAPA_1
 10
-100.306797868837
 20
-57.67938625369295
 30
0.0
  0
VERTEX
  5
1A3
  8
CAPA_1
 10
-100.1605190400656
 20
-57.59343917281207
 30
0.0
  0
VERTEX
  5
1A4
  8
CAPA_1
 10
-100.0089209811571
 20
-57.51387680651234
 30
0.0
  0
VERTEX
  5
1A5
  8
CAPA_1
 10
-99.85200369211142
 20
-57.4409271803145
 30
0.0
  0
VERTEX
  5
1A6
  8
CAPA_1
 10
-99.68976717292863
 20
-57.37481831973934
 30
0.0
  0
VERTEX
  5
1A7
  8
CAPA_1
 10
-99.52221142360867
 20
-57.3157782503076
 30
0.0
 42
0.1152293571814461
  0
VERTEX
  5
1A8
  8
CAPA_1
 10
-78.85198600637047
 20
-50.98729336697296
 30
0.0
  0
VERTEX
  5
1A9
  8
CAPA_1
 10
-78.49216481712872
 20
-50.25109395290121
 30
0.0
  0
VERTEX
  5
1AA
  8
CAPA_1
 10
-78.10917097376927
 20
-49.52867665565927
 30
0.0
  0
VERTEX
  5
1AB
  8
CAPA_1
 10
-77.70348806075083
 20
-48.82052680379819
 30
0.0
  0
VERTEX
  5
1AC
  8
CAPA_1
 10
-77.27559966253213
 20
-48.1271297258691
 30
0.0
  0
VERTEX
  5
1AD
  8
CAPA_1
 10
-76.82598936357192
 20
-47.44897075042309
 30
0.0
  0
VERTEX
  5
1AE
  8
CAPA_1
 10
-76.35514074832895
 20
-46.78653520601128
 30
0.0
  0
VERTEX
  5
1AF
  8
CAPA_1
 10
-75.86353740126195
 20
-46.14030842118478
 30
0.0
  0
VERTEX
  5
1B0
  8
CAPA_1
 10
-75.35166290682965
 20
-45.51077572449469
 30
0.0
  0
VERTEX
  5
1B1
  8
CAPA_1
 10
-75.33853413262592
 20
-45.52179276125423
 30
0.0
 42
-0.7684034981527388
  0
VERTEX
  5
1B2
  8
CAPA_1
 10
-69.29517234664786
 20
-50.59293368548266
 30
0.0
  0
VERTEX
  5
1B3
  8
CAPA_1
 10
-69.5318016716522
 20
-50.88029511408291
 30
0.0
  0
VERTEX
  5
1B4
  8
CAPA_1
 10
-69.76185356602059
 20
-51.1724653234694
 30
0.0
  0
VERTEX
  5
1B5
  8
CAPA_1
 10
-69.98526673844148
 20
-51.46932466034085
 30
0.0
  0
VERTEX
  5
1B6
  8
CAPA_1
 10
-70.2019798976034
 20
-51.77075347139596
 30
0.0
  0
VERTEX
  5
1B7
  8
CAPA_1
 10
-70.41193175219475
 20
-52.07663210333347
 30
0.0
  0
VERTEX
  5
1B8
  8
CAPA_1
 10
-70.61506101090404
 20
-52.3868409028521
 30
0.0
  0
VERTEX
  5
1B9
  8
CAPA_1
 10
-70.81130638241974
 20
-52.70126021665055
 30
0.0
  0
VERTEX
  5
1BA
  8
CAPA_1
 10
-71.0006065754303
 20
-53.01977039142756
 30
0.0
  0
VERTEX
  5
1BB
  8
CAPA_1
 10
-71.18290029862419
 20
-53.34225177388183
 30
0.0
  0
VERTEX
  5
1BC
  8
CAPA_1
 10
-71.3581262606899
 20
-53.66858471071211
 30
0.0
  0
VERTEX
  5
1BD
  8
CAPA_1
 10
-71.52622317031589
 20
-53.99864954861709
 30
0.0
  0
VERTEX
  5
1BE
  8
CAPA_1
 10
-71.6871297361906
 20
-54.3323266342955
 30
0.0
  0
VERTEX
  5
1BF
  8
CAPA_1
 10
-71.84078466700254
 20
-54.66949631444606
 30
0.0
  0
VERTEX
  5
1C0
  8
CAPA_1
 10
-71.98712667144017
 20
-55.01003893576749
 30
0.0
  0
VERTEX
  5
1C1
  8
CAPA_1
 10
-72.12609445819194
 20
-55.35383484495851
 30
0.0
  0
VERTEX
  5
1C2
  8
CAPA_1
 10
-72.25762673594635
 20
-55.70076438871784
 30
0.0
  0
VERTEX
  5
1C3
  8
CAPA_1
 10
-72.38166221339182
 20
-56.0507079137442
 30
0.0
  0
VERTEX
  5
1C4
  8
CAPA_1
 10
-72.49813959921687
 20
-56.40354576673631
 30
0.0
  0
VERTEX
  5
1C5
  8
CAPA_1
 10
-72.60699760210996
 20
-56.75915829439289
 30
0.0
  0
VERTEX
  5
1C6
  8
CAPA_1
 10
-72.70817493075953
 20
-57.11742584341265
 30
0.0
  0
VERTEX
  5
1C7
  8
CAPA_1
 10
-72.80161029385405
 20
-57.47822876049432
 30
0.0
  0
VERTEX
  5
1C8
  8
CAPA_1
 10
-72.88724240008202
 20
-57.8414473923366
 30
0.0
  0
VERTEX
  5
1C9
  8
CAPA_1
 10
-72.96500995813189
 20
-58.20696208563825
 30
0.0
  0
VERTEX
  5
1CA
  8
CAPA_1
 10
-73.03485167669214
 20
-58.57465318709796
 30
0.0
  0
VERTEX
  5
1CB
  8
CAPA_1
 10
-73.09670626445123
 20
-58.94440104341446
 30
0.0
  0
VERTEX
  5
1CC
  8
CAPA_1
 10
-73.15051243009762
 20
-59.31608600128645
 30
0.0
  0
VERTEX
  5
1CD
  8
CAPA_1
 10
-73.19620888231981
 20
-59.68958840741266
 30
0.0
  0
VERTEX
  5
1CE
  8
CAPA_1
 10
-73.23373432980624
 20
-60.06478860849183
 30
0.0
  0
VERTEX
  5
1CF
  8
CAPA_1
 10
-73.26302748124539
 20
-60.44156695122266
 30
0.0
  0
VERTEX
  5
1D0
  8
CAPA_1
 10
-73.28402704532573
 20
-60.81980378230388
 30
0.0
  0
VERTEX
  5
1D1
  8
CAPA_1
 10
-73.29667173073571
 20
-61.1993794484342
 30
0.0
  0
VERTEX
  5
1D2
  8
CAPA_1
 10
-73.30090024616382
 20
-61.58017429631234
 30
0.0
  0
VERTEX
  5
1D3
  8
CAPA_1
 10
-73.2966851778226
 20
-61.96027371921126
 30
0.0
  0
VERTEX
  5
1D4
  8
CAPA_1
 10
-73.28407965276637
 20
-62.33921515981272
 30
0.0
  0
VERTEX
  5
1D5
  8
CAPA_1
 10
-73.26314319094632
 20
-62.71687844699252
 30
0.0
  0
VERTEX
  5
1D6
  8
CAPA_1
 10
-73.23393531231366
 20
-63.09314340962644
 30
0.0
  0
VERTEX
  5
1D7
  8
CAPA_1
 10
-73.19651553681953
 20
-63.46788987659025
 30
0.0
  0
VERTEX
  5
1D8
  8
CAPA_1
 10
-73.15094338441514
 20
-63.84099767675973
 30
0.0
  0
VERTEX
  5
1D9
  8
CAPA_1
 10
-73.09727837505167
 20
-64.21234663901069
 30
0.0
  0
VERTEX
  5
1DA
  8
CAPA_1
 10
-73.03558002868027
 20
-64.58181659221887
 30
0.0
  0
VERTEX
  5
1DB
  8
CAPA_1
 10
-72.96590786525215
 20
-64.94928736526008
 30
0.0
  0
VERTEX
  5
1DC
  8
CAPA_1
 10
-72.88832140471848
 20
-65.31463878701011
 30
0.0
  0
VERTEX
  5
1DD
  8
CAPA_1
 10
-72.80288016703045
 20
-65.67775068634472
 30
0.0
  0
VERTEX
  5
1DE
  8
CAPA_1
 10
-72.70964367213924
 20
-66.0385028921397
 30
0.0
  0
VERTEX
  5
1DF
  8
CAPA_1
 10
-72.60867143999604
 20
-66.39677523327083
 30
0.0
  0
VERTEX
  5
1E0
  8
CAPA_1
 10
-72.500022990552
 20
-66.75244753861391
 30
0.0
  0
VERTEX
  5
1E1
  8
CAPA_1
 10
-72.38375784375832
 20
-67.1053996370447
 30
0.0
  0
VERTEX
  5
1E2
  8
CAPA_1
 10
-72.2599355195662
 20
-67.45551135743898
 30
0.0
  0
VERTEX
  5
1E3
  8
CAPA_1
 10
-72.1286155379268
 20
-67.80266252867256
 30
0.0
  0
VERTEX
  5
1E4
  8
CAPA_1
 10
-71.9898574187913
 20
-68.14673297962119
 30
0.0
  0
VERTEX
  5
1E5
  8
CAPA_1
 10
-71.8437206821109
 20
-68.48760253916066
 30
0.0
  0
VERTEX
  5
1E6
  8
CAPA_1
 10
-71.69026484783676
 20
-68.82515103616676
 30
0.0
  0
VERTEX
  5
1E7
  8
CAPA_1
 10
-71.52954943592007
 20
-69.15925829951527
 30
0.0
  0
VERTEX
  5
1E8
  8
CAPA_1
 10
-71.36163396631201
 20
-69.48980415808198
 30
0.0
  0
VERTEX
  5
1E9
  8
CAPA_1
 10
-71.18657795896377
 20
-69.81666844074266
 30
0.0
  0
VERTEX
  5
1EA
  8
CAPA_1
 10
-71.00444093382652
 20
-70.1397309763731
 30
0.0
  0
VERTEX
  5
1EB
  8
CAPA_1
 10
-70.81528241085144
 20
-70.45887159384907
 30
0.0
  0
VERTEX
  5
1EC
  8
CAPA_1
 10
-70.61916190998973
 20
-70.77397012204638
 30
0.0
  0
VERTEX
  5
1ED
  8
CAPA_1
 10
-70.41613895119255
 20
-71.08490638984078
 30
0.0
  0
VERTEX
  5
1EE
  8
CAPA_1
 10
-70.2062730544111
 20
-71.39156022610806
 30
0.0
  0
VERTEX
  5
1EF
  8
CAPA_1
 10
-69.98962373959654
 20
-71.693811459724
 30
0.0
  0
VERTEX
  5
1F0
  8
CAPA_1
 10
-69.76625052670008
 20
-71.99153991956439
 30
0.0
  0
VERTEX
  5
1F1
  8
CAPA_1
 10
-69.53621293567286
 20
-72.28462543450502
 30
0.0
  0
VERTEX
  5
1F2
  8
CAPA_1
 10
-69.29957048646611
 20
-72.57294783342165
 30
0.0
  0
VERTEX
  5
1F3
  8
CAPA_1
 10
-69.29957048646725
 20
-72.5729478334226
 30
0.0
 42
-0.7548582658086244
  0
VERTEX
  5
1F4
  8
CAPA_1
 10
-75.35066700142376
 20
-77.65073732987268
 30
0.0
  0
VERTEX
  5
1F5
  8
CAPA_1
 10
-75.86269955821307
 20
-77.02108757980497
 30
0.0
  0
VERTEX
  5
1F6
  8
CAPA_1
 10
-76.3544519844297
 20
-76.37473487133897
 30
0.0
  0
VERTEX
  5
1F7
  8
CAPA_1
 10
-76.8254403770425
 20
-75.71216489203393
 30
0.0
  0
VERTEX
  5
1F8
  8
CAPA_1
 10
-77.27518083302027
 20
-75.03386332944908
 30
0.0
  0
VERTEX
  5
1F9
  8
CAPA_1
 10
-77.70318944933189
 20
-74.34031587114364
 30
0.0
  0
VERTEX
  5
1FA
  8
CAPA_1
 10
-78.10898232294616
 20
-73.6320082046769
 30
0.0
  0
VERTEX
  5
1FB
  8
CAPA_1
 10
-78.49207555083194
 20
-72.90942601760806
 30
0.0
  0
VERTEX
  5
1FC
  8
CAPA_1
 10
-78.85198522995803
 20
-72.17305499749635
 30
0.0
 42
0.1152293571814461
  0
SEQEND
  5
29A
  8
CAPA_1
  0
POLYLINE
  5
70
  8
CAPA_1
 66
     1
 10
0.0
 20
0.0
 30
0.0
 70
     1
  0
VERTEX
  5
1FD
  8
CAPA_1
 10
-54.34118049926406
 20
47.640339732109
 30
0.0
 42
1.0
  0
VERTEX
  5
1FE
  8
CAPA_1
 10
-54.34118049926406
 20
59.78377502622662
 30
0.0
  0
VERTEX
  5
1FF
  8
CAPA_1
 10
-90.0381751333532
 20
64.27717859331732
 30
0.0
  0
VERTEX
  5
200
  8
CAPA_1
 10
-90.03817513335326
 20
64.27717859331743
 30
0.0
  0
VERTEX
  5
201
  8
CAPA_1
 10
-97.20179666292704
 20
60.93672696640191
 30
0.0
  0
VERTEX
  5
202
  8
CAPA_1
 10
-97.01049331250474
 20
60.51361783812185
 30
0.0
  0
VERTEX
  5
203
  8
CAPA_1
 10
-96.83090373829359
 20
60.08556685881955
 30
0.0
  0
VERTEX
  5
204
  8
CAPA_1
 10
-96.66311464491507
 20
59.65282063311627
 30
0.0
  0
VERTEX
  5
205
  8
CAPA_1
 10
-96.5072127369907
 20
59.21562576563331
 30
0.0
  0
VERTEX
  5
206
  8
CAPA_1
 10
-96.363284719142
 20
58.77422886099193
 30
0.0
  0
VERTEX
  5
207
  8
CAPA_1
 10
-96.23141729599047
 20
58.32887652381342
 30
0.0
  0
VERTEX
  5
208
  8
CAPA_1
 10
-96.11169717215762
 20
57.87981535871907
 30
0.0
  0
VERTEX
  5
209
  8
CAPA_1
 10
-96.00421105226499
 20
57.42729197033015
 30
0.0
  0
VERTEX
  5
20A
  8
CAPA_1
 10
-95.90904564093407
 20
56.97155296326793
 30
0.0
  0
VERTEX
  5
20B
  8
CAPA_1
 10
-95.82628764278635
 20
56.51284494215371
 30
0.0
  0
VERTEX
  5
20C
  8
CAPA_1
 10
-95.75602376244336
 20
56.05141451160875
 30
0.0
  0
VERTEX
  5
20D
  8
CAPA_1
 10
-95.69834070452663
 20
55.58750827625435
 30
0.0
  0
VERTEX
  5
20E
  8
CAPA_1
 10
-95.65332517365765
 20
55.12137284071177
 30
0.0
  0
VERTEX
  5
20F
  8
CAPA_1
 10
-95.62106387445792
 20
54.6532548096023
 30
0.0
  0
VERTEX
  5
210
  8
CAPA_1
 10
-95.60164351154899
 20
54.18340078754723
 30
0.0
  0
VERTEX
  5
211
  8
CAPA_1
 10
-95.59515078955232
 20
53.71205737916782
 30
0.0
  0
VERTEX
  5
212
  8
CAPA_1
 10
-95.60165041007484
 20
53.24044860987054
 30
0.0
  0
VERTEX
  5
213
  8
CAPA_1
 10
-95.62109042162575
 20
52.7703529295523
 30
0.0
  0
VERTEX
  5
214
  8
CAPA_1
 10
-95.65338254918004
 20
52.30201650620343
 30
0.0
  0
VERTEX
  5
215
  8
CAPA_1
 10
-95.69843851771273
 20
51.83568550781426
 30
0.0
  0
VERTEX
  5
216
  8
CAPA_1
 10
-95.75617005219878
 20
51.37160610237513
 30
0.0
  0
VERTEX
  5
217
  8
CAPA_1
 10
-95.82648887761323
 20
50.91002445787633
 30
0.0
  0
VERTEX
  5
218
  8
CAPA_1
 10
-95.90930671893103
 20
50.45118674230821
 30
0.0
  0
VERTEX
  5
219
  8
CAPA_1
 10
-96.00453530112723
 20
49.9953391236611
 30
0.0
  0
VERTEX
  5
21A
  8
CAPA_1
 10
-96.11208634917683
 20
49.54272776992531
 30
0.0
  0
VERTEX
  5
21B
  8
CAPA_1
 10
-96.2318715880548
 20
49.09359884909119
 30
0.0
  0
VERTEX
  5
21C
  8
CAPA_1
 10
-96.36380274273617
 20
48.64819852914906
 30
0.0
  0
VERTEX
  5
21D
  8
CAPA_1
 10
-96.5077915381959
 20
48.20677297808923
 30
0.0
  0
VERTEX
  5
21E
  8
CAPA_1
 10
-96.66374969940904
 20
47.76956836390204
 30
0.0
  0
VERTEX
  5
21F
  8
CAPA_1
 10
-96.83158895135057
 20
47.33683085457783
 30
0.0
  0
VERTEX
  5
220
  8
CAPA_1
 10
-97.0112210189955
 20
46.90880661810691
 30
0.0
  0
VERTEX
  5
221
  8
CAPA_1
 10
-97.2025576273188
 20
46.4857418224796
 30
0.0
  0
VERTEX
  5
222
  8
CAPA_1
 10
-90.0389598906404
 20
43.14530186265963
 30
0.0
  0
VERTEX
  5
223
  8
CAPA_1
 10
-90.0389598906404
 20
43.14530186265969
 30
0.0
  0
SEQEND
  5
29B
  8
CAPA_1
  0
POLYLINE
  5
71
  8
CAPA_1
 66
     1
 10
0.0
 20
0.0
 30
0.0
 70
     1
  0
VERTEX
  5
224
  8
CAPA_1
 10
-75.43750942298358
 20
51.16205737916778
 30
0.0
 42
-0.8831970725125615
  0
VERTEX
  5
225
  8
CAPA_1
 10
-75.43750942298358
 20
56.26205737916784
 30
0.0
  0
VERTEX
  5
226
  8
CAPA_1
 10
-62.43750942298366
 20
56.26205737916784
 30
0.0
  0
VERTEX
  5
227
  8
CAPA_1
 10
-55.01322145066927
 20
56.26205737916784
 30
0.0
  0
VERTEX
  5
228
  8
CAPA_1
 10
-54.73268807260413
 20
56.24889201662953
 30
0.0
  0
VERTEX
  5
229
  8
CAPA_1
 10
-54.46025839257341
 20
56.21025044235815
 30
0.0
  0
VERTEX
  5
22A
  8
CAPA_1
 10
-54.19731157430289
 20
56.14741442636901
 30
0.0
  0
VERTEX
  5
22B
  8
CAPA_1
 10
-53.94522678151839
 20
56.06166573867746
 30
0.0
  0
VERTEX
  5
22C
  8
CAPA_1
 10
-53.70538317794568
 20
55.95428614929881
 30
0.0
  0
VERTEX
  5
22D
  8
CAPA_1
 10
-53.47915992731059
 20
55.82655742824839
 30
0.0
  0
VERTEX
  5
22E
  8
CAPA_1
 10
-53.26793619333893
 20
55.67976134554151
 30
0.0
  0
VERTEX
  5
22F
  8
CAPA_1
 10
-53.07309113975649
 20
55.51517967119351
 30
0.0
  0
VERTEX
  5
230
  8
CAPA_1
 10
-52.89600393028907
 20
55.3340941752197
 30
0.0
  0
VERTEX
  5
231
  8
CAPA_1
 10
-52.73805372866248
 20
55.13778662763542
 30
0.0
  0
VERTEX
  5
232
  8
CAPA_1
 10
-52.60061969860251
 20
54.92753879845598
 30
0.0
  0
VERTEX
  5
233
  8
CAPA_1
 10
-52.48508100383498
 20
54.7046324576967
 30
0.0
  0
VERTEX
  5
234
  8
CAPA_1
 10
-52.39281680808569
 20
54.47034937537293
 30
0.0
  0
VERTEX
  5
235
  8
CAPA_1
 10
-52.32520627508045
 20
54.22597132149997
 30
0.0
  0
VERTEX
  5
236
  8
CAPA_1
 10
-52.28362856854504
 20
53.97278006609315
 30
0.0
  0
VERTEX
  5
237
  8
CAPA_1
 10
-52.26946285220528
 20
53.7120573791678
 30
0.0
  0
VERTEX
  5
238
  8
CAPA_1
 10
-52.28362856854504
 20
53.45133469224244
 30
0.0
  0
VERTEX
  5
239
  8
CAPA_1
 10
-52.32520627508045
 20
53.19814343683562
 30
0.0
  0
VERTEX
  5
23A
  8
CAPA_1
 10
-52.39281680808569
 20
52.95376538296266
 30
0.0
  0
VERTEX
  5
23B
  8
CAPA_1
 10
-52.48508100383498
 20
52.71948230063889
 30
0.0
  0
VERTEX
  5
23C
  8
CAPA_1
 10
-52.60061969860251
 20
52.49657595987961
 30
0.0
  0
VERTEX
  5
23D
  8
CAPA_1
 10
-52.73805372866248
 20
52.28632813070017
 30
0.0
  0
VERTEX
  5
23E
  8
CAPA_1
 10
-52.89600393028907
 20
52.09002058311589
 30
0.0
  0
VERTEX
  5
23F
  8
CAPA_1
 10
-53.07309113975649
 20
51.90893508714208
 30
0.0
  0
VERTEX
  5
240
  8
CAPA_1
 10
-53.26793619333893
 20
51.74435341279408
 30
0.0
  0
VERTEX
  5
241
  8
CAPA_1
 10
-53.47915992731059
 20
51.59755733008721
 30
0.0
  0
VERTEX
  5
242
  8
CAPA_1
 10
-53.70538317794568
 20
51.46982860903679
 30
0.0
  0
VERTEX
  5
243
  8
CAPA_1
 10
-53.94522678151839
 20
51.36244901965814
 30
0.0
  0
VERTEX
  5
244
  8
CAPA_1
 10
-54.19731157430289
 20
51.27670033196659
 30
0.0
  0
VERTEX
  5
245
  8
CAPA_1
 10
-54.46025839257341
 20
51.21386431597747
 30
0.0
  0
VERTEX
  5
246
  8
CAPA_1
 10
-54.73268807260413
 20
51.17522274170609
 30
0.0
  0
VERTEX
  5
247
  8
CAPA_1
 10
-55.01322145066927
 20
51.16205737916778
 30
0.0
  0
VERTEX
  5
248
  8
CAPA_1
 10
-62.43750942298366
 20
51.16205737916778
 30
0.0
  0
SEQEND
  5
29C
  8
CAPA_1
  0
POLYLINE
  5
72
  8
CAPA_1
 66
     1
 10
0.0
 20
0.0
 30
0.0
 70
     1
  0
VERTEX
  5
249
  8
CAPA_1
 10
-54.34118049926406
 20
25.06113973210905
 30
0.0
 42
1.0
  0
VERTEX
  5
24A
  8
CAPA_1
 10
-54.34118049926406
 20
37.20457502622669
 30
0.0
  0
VERTEX
  5
24B
  8
CAPA_1
 10
-90.0381751333532
 20
41.69797859331739
 30
0.0
  0
VERTEX
  5
24C
  8
CAPA_1
 10
-90.03817513335326
 20
41.6979785933175
 30
0.0
  0
VERTEX
  5
24D
  8
CAPA_1
 10
-97.20179666292704
 20
38.35752696640198
 30
0.0
  0
VERTEX
  5
24E
  8
CAPA_1
 10
-97.01049331250474
 20
37.93441783812192
 30
0.0
  0
VERTEX
  5
24F
  8
CAPA_1
 10
-96.83090373829359
 20
37.50636685881962
 30
0.0
  0
VERTEX
  5
250
  8
CAPA_1
 10
-96.66311464491507
 20
37.07362063311634
 30
0.0
  0
VERTEX
  5
251
  8
CAPA_1
 10
-96.5072127369907
 20
36.63642576563338
 30
0.0
  0
VERTEX
  5
252
  8
CAPA_1
 10
-96.363284719142
 20
36.195028860992
 30
0.0
  0
VERTEX
  5
253
  8
CAPA_1
 10
-96.23141729599047
 20
35.74967652381349
 30
0.0
  0
VERTEX
  5
254
  8
CAPA_1
 10
-96.11169717215762
 20
35.30061535871913
 30
0.0
  0
VERTEX
  5
255
  8
CAPA_1
 10
-96.00421105226499
 20
34.8480919703302
 30
0.0
  0
VERTEX
  5
256
  8
CAPA_1
 10
-95.90904564093407
 20
34.39235296326799
 30
0.0
  0
VERTEX
  5
257
  8
CAPA_1
 10
-95.82628764278635
 20
33.93364494215376
 30
0.0
  0
VERTEX
  5
258
  8
CAPA_1
 10
-95.75602376244336
 20
33.47221451160881
 30
0.0
  0
VERTEX
  5
259
  8
CAPA_1
 10
-95.69834070452663
 20
33.0083082762544
 30
0.0
  0
VERTEX
  5
25A
  8
CAPA_1
 10
-95.65332517365765
 20
32.54217284071183
 30
0.0
  0
VERTEX
  5
25B
  8
CAPA_1
 10
-95.62106387445792
 20
32.07405480960237
 30
0.0
  0
VERTEX
  5
25C
  8
CAPA_1
 10
-95.60164351154899
 20
31.6042007875473
 30
0.0
  0
VERTEX
  5
25D
  8
CAPA_1
 10
-95.59515078955232
 20
31.13285737916789
 30
0.0
  0
VERTEX
  5
25E
  8
CAPA_1
 10
-95.60165041007484
 20
30.66124860987062
 30
0.0
  0
VERTEX
  5
25F
  8
CAPA_1
 10
-95.62109042162575
 20
30.19115292955238
 30
0.0
  0
VERTEX
  5
260
  8
CAPA_1
 10
-95.65338254918004
 20
29.72281650620351
 30
0.0
  0
VERTEX
  5
261
  8
CAPA_1
 10
-95.69843851771273
 20
29.25648550781434
 30
0.0
  0
VERTEX
  5
262
  8
CAPA_1
 10
-95.75617005219878
 20
28.7924061023752
 30
0.0
  0
VERTEX
  5
263
  8
CAPA_1
 10
-95.82648887761323
 20
28.3308244578764
 30
0.0
  0
VERTEX
  5
264
  8
CAPA_1
 10
-95.90930671893103
 20
27.87198674230828
 30
0.0
  0
VERTEX
  5
265
  8
CAPA_1
 10
-96.00453530112723
 20
27.41613912366117
 30
0.0
  0
VERTEX
  5
266
  8
CAPA_1
 10
-96.11208634917683
 20
26.96352776992539
 30
0.0
  0
VERTEX
  5
267
  8
CAPA_1
 10
-96.2318715880548
 20
26.51439884909127
 30
0.0
  0
VERTEX
  5
268
  8
CAPA_1
 10
-96.36380274273617
 20
26.06899852914913
 30
0.0
  0
VERTEX
  5
269
  8
CAPA_1
 10
-96.5077915381959
 20
25.62757297808931
 30
0.0
  0
VERTEX
  5
26A
  8
CAPA_1
 10
-96.66374969940904
 20
25.19036836390213
 30
0.0
  0
VERTEX
  5
26B
  8
CAPA_1
 10
-96.83158895135057
 20
24.75763085457791
 30
0.0
  0
VERTEX
  5
26C
  8
CAPA_1
 10
-97.0112210189955
 20
24.32960661810699
 30
0.0
  0
VERTEX
  5
26D
  8
CAPA_1
 10
-97.2025576273188
 20
23.90654182247969
 30
0.0
  0
VERTEX
  5
26E
  8
CAPA_1
 10
-90.0389598906404
 20
20.56610186265969
 30
0.0
  0
VERTEX
  5
26F
  8
CAPA_1
 10
-90.0389598906404
 20
20.56610186265977
 30
0.0
  0
SEQEND
  5
29D
  8
CAPA_1
  0
POLYLINE
  5
73
  8
CAPA_1
 66
     1
 10
0.0
 20
0.0
 30
0.0
 70
     1
  0
VERTEX
  5
270
  8
CAPA_1
 10
-75.43750942298358
 20
28.58285737916786
 30
0.0
 42
-0.8831970725125615
  0
VERTEX
  5
271
  8
CAPA_1
 10
-75.43750942298358
 20
33.68285737916791
 30
0.0
  0
VERTEX
  5
272
  8
CAPA_1
 10
-62.43750942298366
 20
33.68285737916791
 30
0.0
  0
VERTEX
  5
273
  8
CAPA_1
 10
-55.01322145066927
 20
33.68285737916791
 30
0.0
  0
VERTEX
  5
274
  8
CAPA_1
 10
-54.73268807260413
 20
33.66969201662959
 30
0.0
  0
VERTEX
  5
275
  8
CAPA_1
 10
-54.46025839257341
 20
33.6310504423582
 30
0.0
  0
VERTEX
  5
276
  8
CAPA_1
 10
-54.19731157430289
 20
33.56821442636907
 30
0.0
  0
VERTEX
  5
277
  8
CAPA_1
 10
-53.94522678151839
 20
33.48246573867753
 30
0.0
  0
VERTEX
  5
278
  8
CAPA_1
 10
-53.70538317794568
 20
33.37508614929887
 30
0.0
  0
VERTEX
  5
279
  8
CAPA_1
 10
-53.47915992731059
 20
33.24735742824845
 30
0.0
  0
VERTEX
  5
27A
  8
CAPA_1
 10
-53.26793619333893
 20
33.10056134554158
 30
0.0
  0
VERTEX
  5
27B
  8
CAPA_1
 10
-53.07309113975649
 20
32.93597967119357
 30
0.0
  0
VERTEX
  5
27C
  8
CAPA_1
 10
-52.89600393028907
 20
32.75489417521976
 30
0.0
  0
VERTEX
  5
27D
  8
CAPA_1
 10
-52.73805372866248
 20
32.55858662763548
 30
0.0
  0
VERTEX
  5
27E
  8
CAPA_1
 10
-52.60061969860251
 20
32.34833879845604
 30
0.0
  0
VERTEX
  5
27F
  8
CAPA_1
 10
-52.48508100383498
 20
32.12543245769677
 30
0.0
  0
VERTEX
  5
280
  8
CAPA_1
 10
-52.39281680808569
 20
31.891149375373
 30
0.0
  0
VERTEX
  5
281
  8
CAPA_1
 10
-52.32520627508045
 20
31.64677132150004
 30
0.0
  0
VERTEX
  5
282
  8
CAPA_1
 10
-52.28362856854504
 20
31.39358006609322
 30
0.0
  0
VERTEX
  5
283
  8
CAPA_1
 10
-52.26946285220528
 20
31.13285737916787
 30
0.0
  0
VERTEX
  5
284
  8
CAPA_1
 10
-52.28362856854504
 20
30.8721346922425
 30
0.0
  0
VERTEX
  5
285
  8
CAPA_1
 10
-52.32520627508045
 20
30.61894343683569
 30
0.0
  0
VERTEX
  5
286
  8
CAPA_1
 10
-52.39281680808569
 20
30.37456538296273
 30
0.0
  0
VERTEX
  5
287
  8
CAPA_1
 10
-52.48508100383498
 20
30.14028230063894
 30
0.0
  0
VERTEX
  5
288
  8
CAPA_1
 10
-52.60061969860251
 20
29.91737595987968
 30
0.0
  0
VERTEX
  5
289
  8
CAPA_1
 10
-52.73805372866248
 20
29.70712813070024
 30
0.0
  0
VERTEX
  5
28A
  8
CAPA_1
 10
-52.89600393028907
 20
29.51082058311596
 30
0.0
  0
VERTEX
  5
28B
  8
CAPA_1
 10
-53.07309113975649
 20
29.32973508714215
 30
0.0
  0
VERTEX
  5
28C
  8
CAPA_1
 10
-53.26793619333893
 20
29.16515341279415
 30
0.0
  0
VERTEX
  5
28D
  8
CAPA_1
 10
-53.47915992731059
 20
29.01835733008728
 30
0.0
  0
VERTEX
  5
28E
  8
CAPA_1
 10
-53.70538317794568
 20
28.89062860903687
 30
0.0
  0
VERTEX
  5
28F
  8
CAPA_1
 10
-53.94522678151839
 20
28.78324901965822
 30
0.0
  0
VERTEX
  5
290
  8
CAPA_1
 10
-54.19731157430289
 20
28.69750033196667
 30
0.0
  0
VERTEX
  5
291
  8
CAPA_1
 10
-54.46025839257341
 20
28.63466431597755
 30
0.0
  0
VERTEX
  5
292
  8
CAPA_1
 10
-54.73268807260413
 20
28.59602274170616
 30
0.0
  0
VERTEX
  5
293
  8
CAPA_1
 10
-55.01322145066927
 20
28.58285737916786
 30
0.0
  0
VERTEX
  5
294
  8
CAPA_1
 10
-62.43750942298366
 20
28.58285737916786
 30
0.0
  0
SEQEND
  5
29E
  8
CAPA_1
  0
ENDSEC
  0
EOF
